<?xml version="1.0" encoding="utf-8"?>
<!-- Generator: Adobe Illustrator 24.0.1, SVG Export Plug-In . SVG Version: 6.00 Build 0)  -->
<svg version="1.1" id="Layer_1" xmlns="http://www.w3.org/2000/svg" xmlns:xlink="http://www.w3.org/1999/xlink" x="0px" y="0px"
	 viewBox="0 0 374.8 206.8" style="enable-background:new 0 0 374.8 206.8;" xml:space="preserve">
<style type="text/css">
	.st0{fill:#ED005B;}
	.st1{fill:#00409E;}
	.st2{fill:#D01C5A;}
</style>
<g>
	<path class="st0" d="M209.2,202.1c-0.1-0.5-0.5-0.6-1-0.7c-11.4-1.6-15-13.1-13.2-21.1c1.1-4.8,4.4-7.1,9-6.1
		c4.2,0.9,6.4,4.8,5.3,9.3c-1,4.1-4.9,6.3-9.3,5.2c-0.6-0.1-1.1-0.9-2-0.3c1.1,5.1,4,8.9,9.2,10.1c5.2,1.2,9.5-0.7,12.5-5
		c4.9-7.1,7.9-15.1,11.4-22.9c0.5-1.2,0-2.1-0.4-3.2c-7.2-17.4-14.4-34.9-21.6-52.3c-1.2-2.9-3-5.2-5.6-6.9c-1.4-1-2.8-2-4.7-3.5
		c8.6,0,16.4,0,24.3,0c0,1.5-1.2,2.1-1.9,3.1c-1.5,2.2-1.9,4.5-0.9,7c5.5,13.4,11,26.9,16.7,40.8c1.8-4.1,3.4-7.8,4.9-11.5
		c3.5-8.4,6.9-16.8,10.7-25.1c2.3-5.1,3.3-9.7-2-14.2c5.5,0,10.2,0,15,0c-7.8,4.7-9.7,13-12.8,20.5c-8.3,19.5-16.5,39-24.7,58.6
		c-1.3,3.2-2.9,6.2-4.6,9.2c-2.7,4.5-6.3,7.7-11.8,8.3c-0.5,0-0.9,0.2-1,0.7C210.1,202.1,209.6,202.1,209.2,202.1z"/>
	<path class="st0" d="M185.2,59.6c0,4.4,0.2,7.8-0.1,11.2c-0.2,2.8,0.9,3.4,3.4,3.2c3.6-0.2,7.1,0,10.7,0c49.2,0,98.4,0,147.7-0.1
		c4.7,0,8.8,0.6,12.2,4.8c-1.2,0-2.4,0-3.5,0c-55.5,0-110.9,0-166.4-0.1c-3.1,0-4.1,0.5-4.1,3.9c0.2,18.9,0.1,37.8,0.1,56.7
		c0,4.7,0.4,9.3,1.8,13.8c2.1,6.4,5.4,9.3,10.3,9.1c5-0.2,9.2-4.5,10.4-10.7c-1.3,0.2-2.6,0.6-3.8,0.7c-4.6,0.3-8.3-2.8-8.7-7.3
		c-0.5-4.5,2.2-8.1,6.4-8.7c5.1-0.8,8.7,1.6,9.5,6.5c1.1,7.2,0,13.9-5.9,18.8c-5.8,4.9-12.5,5.5-19.5,3.2
		c-7.5-2.4-11.7-9.5-11.8-19.8c-0.1-11.6,0-23.1,0-34.7c0-9.4-0.1-18.9,0.1-28.3c0.1-2.7-0.8-3.3-3.4-3.2
		c-20.2,0.1-40.3,0.1-60.5,0.1c-0.6,0-1.3,0-2.7,0c3.4-2.7,5.9-4.9,10.2-4.8c17.9,0.2,35.9,0.1,53.8,0.1c2,0,3.2-0.6,4.4-2.2
		C178.6,67.9,181.6,64.2,185.2,59.6z"/>
	<path class="st0" d="M330.6,165.3c-7.4,0-13.7,0-21.1,0c6.5-5.6,5.3-12.6,5.2-19.2c-0.1-10.1,0.8-20.2-1.3-30.2
		c-0.3-1.3-0.6-2.6-1-3.9c-2.9-8.1-11.5-10.3-17.8-4.2c-5.3,5.1-7.2,11.9-7.9,19c-0.9,9.1-0.5,18.2-0.4,27.3
		c0.1,4.6,0.6,5.4,4.7,11.1c-6.6,0-13,0-20.1,0c6.4-5.6,5-12.9,5-19.8c0.1-8.9-0.1-17.8,0-26.7c0.1-4-0.8-7.5-3.5-10.4
		c-1.4-1.5-1.7-2.4,0.8-3.1c3.5-1,7-2.1,10.4-3.4c2.3-0.9,2.7-0.1,2.6,2c-0.1,3.8,0,7.7,0.5,11.7c0.6-1.2,1.2-2.4,1.9-3.6
		c3.8-6.9,9.4-11.4,17.5-12.2c8.2-0.8,14.5,3.5,17.1,11.7c0.5,1.8,0.9,3.6,1.4,5.9c1.2-2.4,2.2-4.5,3.3-6.4
		c3.7-6.2,8.9-10.3,16.4-11.2c7.8-0.9,14,2.6,17,9.9c2.2,5.3,2.4,10.8,2.5,16.4c0.1,7.2,0.1,14.4,0,21.7c0,6.2-0.8,12.5,5.5,17.8
		c-2.1,0-3,0-4,0c-5.4,0-10.8,0-17.3,0c6-5.3,5.6-11.5,5.4-17.8c-0.2-9.5,0.6-19.1-0.7-28.6c-0.4-2.6-0.9-5.2-1.9-7.7
		c-2.8-7.1-9.8-9.2-16-4.7c-4.5,3.2-6.6,8-8.1,13.1c-1.5,5.2-1.7,10.5-1.8,15.8c-0.1,4.8,0.1,9.6-0.1,14.3
		C324.8,155.4,325.4,160.7,330.6,165.3z"/>
	<path class="st1" d="M101.6,104.9c8.6,0,16.5,0,24.8,0c-0.9,1.2-1.6,2.2-2.3,3.2c-1.5,2.1-2,4.5-1,6.9
		c5.4,13.2,10.9,26.4,16.4,39.7c0.1,0.2,0.3,0.3,0.6,0.7c4.8-11.4,9.5-22.5,14.2-33.7c0.4-0.9,0.7-1.9,1.2-2.8
		c2.6-4.9,3.1-9.5-2.2-13.9c5.5,0,10.3,0,15.1,0c0,0.1,0,0.4-0.1,0.5c-5.4,3.7-8.3,8.9-10.7,14.8c-8.9,21.5-18.1,42.9-27.2,64.3
		c-1.9,4.4-4.5,8.2-8,11.3c-4.4,4-9.7,4.6-14.9,2.5c-5.3-2.2-9-6.1-9.8-12.1c-0.3-2.1-0.3-4.2,0.3-6.3c1.2-4.7,4.8-6.8,9.3-5.6
		c4.1,1.1,6.2,5.2,4.9,9.5c-1.3,4-5.4,6.1-9.6,4.8c-0.6-0.2-1.1-0.9-2-0.4c2.2,4.6,5.5,7.6,10.6,8.4c5.4,0.8,9.2-1.7,12.1-6
		c4.1-6.1,7.5-12.6,10.4-19.3c0.6-1.3,0.6-2.4,0-3.8c-7.2-17.4-14.4-34.8-21.6-52.3c-1.2-3-3-5.4-5.7-7.2
		C104.8,107.4,103.5,106.3,101.6,104.9z"/>
	<path class="st1" d="M110.6,24.9C102.7,9.3,89.3,2.4,71.8,3.3C52.5,4.2,33.3,4.8,14,5.5C11,5.6,8,5.9,4.5,6.1
		c3.6,3.4,5.3,7.2,6.2,11.4C11.6,21.3,12,25.1,12,29c0.1,39.6,0.1,79.1,0.3,118.7c0,7-1.5,13.1-6.3,18.4c-0.6,0.7-1.6,1.3-1.4,2.5
		c10.8,0,21.6,0,33,0c-1.6-2.1-2.8-3.7-4.1-5.4c-2.7-3.6-4.1-7.6-4.1-12.1c0-11-0.1-22,0-33c0.2-12.5,9.8-23.4,21.9-24.7
		c7.5-0.9,15.1-1.5,22.6-2.1c13.6-1,25.6-5.6,33.7-16.9C118.9,58.7,119.1,41.7,110.6,24.9z M69.4,86.7c-21.8,0-39.4-17.7-39.4-39.5
		C30.1,25.6,47.7,8,69.4,7.9c21.8,0,39.5,17.6,39.5,39.3C108.9,69,91.3,86.7,69.4,86.7z"/>
	<path class="st1" d="M111.8,159.3c-1.2-0.8-1.2,0.5-1.6,1c-1,1.4-2.3,2.2-4,1.7c-1.6-0.4-2.2-1.7-2.6-3.2c-0.7-2.3-0.7-4.6-0.7-6.9
		c0-8.6,0-17.1,0-25.7c0-3.7-0.4-7.3-1.6-10.8c-3.1-8.9-9.5-14.2-18.6-15.8c-10.2-1.9-20.1-1.3-27.8,7c-3.8,4.1-4.9,9.2-3.4,14.6
		c1.1,3.9,4.2,5.6,8.6,4.9c3.6-0.6,5.8-3.4,5.7-7.4c-0.1-3.9-2.8-6.9-6.5-7.3c-1.7-0.2-3.3,0.1-5,0.9c0.3-1.8,1.1-3,2.1-4.1
		C62,102,69.1,100.5,77,102c7.2,1.3,11.5,5.9,13.8,12.6c1.8,5.2,1.5,10.5,1.6,15.8c0,1.6-0.5,1.9-2,1.3c-3.9-1.5-8-2.6-12.2-3.4
		c-7.4-1.3-14.7-1-21.5,2.4c-7.4,3.6-11.2,10.5-10.5,18.8c0.6,7.4,5.3,12.8,13.3,15.3c4.3,1.3,8.7,1.5,13.2,0.9
		c8.6-1.3,14.9-5.8,19.5-13.8c0.5,3.8,1,6.9,2.7,9.7c3.7,5.9,13.4,5.9,16.9-0.1C112.3,160.8,112.8,160,111.8,159.3z M67.3,160.4
		c-8.3-1.8-12-8.7-9.5-17.4c2.3-7.8,8.8-12.3,18.5-11.9c4.2,0.1,9.2,1.6,14.1,3.5c1.1,0.4,1.9,0.8,2,2.2
		C94.2,151.6,81.5,163.5,67.3,160.4z"/>
	<path class="st0" d="M98.7,24.8c2.4,8.8,3.3,17.7,1.2,26.7c-3.6,15.5-15.6,25-32.3,25.9c-1.6,0.1-3.3,0-5.1-0.1
		c13.3-4,21.4-12,20.9-26.6C83.1,40,76.9,33.7,61.3,27.9c7.7,0,14.1,0.9,19.3,6.1c2.2,2.2,4.5,4.3,7.8,4.7c6.3,0.8,8.2-0.7,9.2-7.4
		c0.5-1.7,0.1-3.5,0.2-5.2C98,25.6,97.6,24.7,98.7,24.8z"/>
	<path class="st0" d="M58.5,32.4c-11.4,2.4-18.3,10.6-18,21.3c0.3,10.4,7.8,18.3,19,19.9c-0.8,2.3-2.3,2.8-4.5,2.3
		c-9.9-2.4-17.5-12.1-17.6-22.5c-0.1-10.7,7.3-20.6,17.2-23.1C56.6,29.7,56.6,29.7,58.5,32.4z"/>
	<path class="st0" d="M92.9,29c0,2.6-2.3,4.9-4.9,4.9c-2.8,0-5.1-2.3-5.1-5.1c0-2.8,2.5-5,5.2-4.9C90.8,24.1,92.9,26.4,92.9,29z"/>
	<path class="st0" d="M73.3,53.2c-3.5,0.5-7.1,0.5-10.4,1.9c-1.7,0.7-3.3-0.5-2.6-2.2c1-2.4,0.9-4.9,1.6-8.3
		c1.5,3.6-0.4,8.7,5.4,7.4c1.6,0.5,3.2,0.1,4.8,0.3C72.7,52.4,73.6,52.1,73.3,53.2z"/>
	<path class="st0" d="M64.1,35.6c-0.1,0.7,0.2,1.6-1,1.6c-1.2,0-1-0.9-1-1.6c0-0.7-0.2-1.6,1-1.6C64.4,34,64.1,34.9,64.1,35.6z"/>
	<path class="st0" d="M47.4,53c0,1.2-0.9,1-1.7,1c-0.7,0-1.6,0.2-1.6-1c0-1.2,0.9-1,1.6-1C46.5,52,47.4,51.8,47.4,53z"/>
	<path class="st0" d="M62.7,71.9c-1.1-0.3-0.5-1.3-0.6-2.1c-0.1-0.8,0.3-1.3,1.1-1.1c1.4,0.2,0.7,1.4,0.8,2.1
		C64.2,71.6,63.9,72,62.7,71.9z"/>
	<path class="st2" d="M81.5,53c0,0.9-0.6,1-1.3,1c-0.7,0-1.3-0.1-1.3-1c0-0.9,0.6-1,1.3-1C80.9,52,81.5,52,81.5,53z"/>
</g>
</svg>
