<?xml version="1.0" encoding="utf-8"?>
<!-- Generator: Adobe Illustrator 24.0.1, SVG Export Plug-In . SVG Version: 6.00 Build 0)  -->
<svg version="1.1" id="Layer_1" xmlns="http://www.w3.org/2000/svg" xmlns:xlink="http://www.w3.org/1999/xlink" x="0px" y="0px"
	 viewBox="0 0 636.8 500" style="enable-background:new 0 0 636.8 500;" xml:space="preserve">
<path d="M317.4,492.8c-97.9,0-195.9,0-293.8,0c-15,0-18.2-3.2-18.2-18.4c0-150.4,0-300.9,0-451.3C5.4,8.3,8.7,5,23.9,5
	c195.7,0,391.3,0,587,0c15.2,0,18.7,3.5,18.7,18.9c0,150,0,300,0,450c0,3.4-0.2,7-1,10.3c-1.1,4.9-4.7,7.7-9.6,8.4
	c-2.8,0.4-5.6,0.3-8.4,0.3C512.8,492.8,415.1,492.8,317.4,492.8z M604.6,468.2c0-119.6,0-238.7,0-357.8c-191.7,0-383,0-574.4,0
	c0,119.4,0,238.5,0,357.8C221.8,468.2,412.9,468.2,604.6,468.2z M605.1,30c-192.3,0-383.7,0-575,0c0,18.7,0,36.8,0,55.1
	c191.8,0,383.2,0,575,0c0-2.3,0-4.2,0-6.2C605.1,62.7,605.1,46.5,605.1,30z"/>
<path d="M551.8,217c-0.2,32-26.6,58.4-58.5,58.3c-31.8-0.1-58.3-26.6-58.5-58.4c-0.2-31.9,27.1-59,58.9-58.6
	C525.9,158.7,552,185.1,551.8,217z M494.1,182.9c-19-0.3-34.5,14.7-34.7,33.6c-0.2,18.6,14.8,34,33.3,34.3
	c19.1,0.3,34.4-14.6,34.6-33.6C527.6,198.4,512.8,183.2,494.1,182.9z"/>
<path d="M259,217c-0.1-32,26-58.4,58-58.7c31.8-0.3,59.1,26.9,58.8,58.7c-0.3,31.9-26.8,58.3-58.5,58.3
	C285.5,275.3,259.1,249,259,217z M317.4,250.8c18.6,0,33.9-15.1,34-33.7c0.2-18.8-15.2-34.3-34.1-34.3c-18.7,0-33.7,14.9-33.9,33.7
	C283.2,235.5,298.4,250.8,317.4,250.8z"/>
<path d="M199.7,216.6c0.2,31.9-26,58.4-58,58.7c-31.9,0.3-58.9-26.6-58.7-58.6c0.2-32,26.5-58.3,58.4-58.4
	C173.2,158.3,199.5,184.6,199.7,216.6z M141.3,250.8c18.8,0,34.5-15.6,34.2-34.3c-0.3-18.6-15.5-33.7-34.1-33.7
	c-18.9,0-34.5,15.6-34.2,34.3C107.5,235.8,122.7,250.8,141.3,250.8z"/>
<path d="M141.3,322.3c-16.4,0-32.9,0.1-49.3,0c-8.4-0.1-13.5-4.5-13.7-11.5c-0.2-6.2,2.7-10.4,8.7-12c2.7-0.7,5.5-0.9,8.3-0.9
	c30.7-0.1,61.4,0,92.1,0c1.9,0,3.9,0,5.8,0.3c7.2,1.2,11.6,6.2,11.3,12.7c-0.4,6.6-5.2,11.3-12.6,11.4
	C175.1,322.4,158.2,322.2,141.3,322.3C141.3,322.2,141.3,322.2,141.3,322.3z"/>
<path d="M141.2,346.9c15.8,0,31.6-0.1,47.4,0c2.8,0,5.7,0.2,8.3,1.1c5.2,1.9,7.9,6,7.6,11.6c-0.2,5.2-2.9,9.1-8,10.7
	c-2.6,0.8-5.5,1.1-8.3,1.1c-31.1,0.1-62.3,0.1-93.4,0c-1.9,0-3.9,0-5.8-0.3c-7.1-1.3-11-5.9-10.7-12.5c0.2-6.3,4.8-10.9,11.7-11.6
	c1.7-0.2,3.5-0.1,5.2-0.1C110.5,346.9,125.9,346.9,141.2,346.9z"/>
<path d="M317,371.4c-15.6,0-31.1,0.1-46.7,0c-2.8,0-5.7-0.3-8.3-1.1c-5.1-1.7-8.4-5.9-7.6-10.8c0.6-3.9,3.6-7.9,6.6-10.9
	c1.6-1.6,5.3-1.6,8-1.6c32.2-0.1,64.5-0.1,96.7,0c8.2,0,13.1,3.3,14.4,9.3c1.9,8.6-3.8,15-13.8,15.2
	C349.9,371.6,333.5,371.4,317,371.4z"/>
<path d="M493.2,346.9c16.2,0,32.5-0.3,48.7,0.2c4.1,0.1,9.2,1.9,12,4.8c6,6.1,2.5,16.1-5.7,18.6c-2.6,0.8-5.5,1-8.3,1
	c-30.9,0.1-61.9,0-92.8,0c-1.5,0-3,0.1-4.5-0.1c-7.6-0.9-12.4-5.9-12.2-12.6c0.2-6.8,5.2-11.6,12.9-11.8c9.7-0.2,19.5-0.1,29.2-0.1
	C479.3,346.9,486.3,346.9,493.2,346.9z"/>
<path d="M317.1,322.3c-16.7,0-33.3,0.1-50-0.1c-7-0.1-11.5-3.7-12.7-9.8c-1.1-5.5,1-9.9,5.9-12.6c2.4-1.3,5.3-1.9,8-2
	c32.7-0.1,65.3-0.2,98,0c9.1,0,14.3,5,14.2,12.5c-0.2,7.5-5.4,11.8-14.7,11.9C349.5,322.3,333.3,322.3,317.1,322.3z"/>
<path d="M493,322.3c-16.4,0-32.9,0.1-49.3,0c-8.1-0.1-13.3-4.9-13.4-11.9c-0.1-6.7,4.6-11.5,12.4-12.4c0.6-0.1,1.3-0.1,1.9-0.1
	c32.7,0,65.3-0.1,98,0.1c8.8,0,14.5,5.5,14.2,12.7c-0.3,7.2-5.7,11.7-14.4,11.7C525.9,322.3,509.5,322.3,493,322.3z"/>
<path d="M493.2,396.1c16.9,0,33.7,0,50.6,0c5.2,0,10,1.9,11.4,6.9c1,3.7,0.8,8.9-1.2,12c-1.8,2.8-6.6,4.6-10.3,5.1
	c-6.4,0.8-12.9,0.3-19.4,0.3c-25.3,0-50.6,0-75.9,0c-2.2,0-4.3,0-6.5-0.2c-7.2-0.8-11.7-5.6-11.5-12.3c0.2-6.4,4.8-11.3,11.7-11.5
	c10.2-0.3,20.3-0.2,30.5-0.2C479.4,396,486.3,396,493.2,396.1C493.2,396.1,493.2,396.1,493.2,396.1z"/>
<path d="M140.8,396c15.8,0,31.6,0,47.4,0c2.4,0,4.8,0,7.1,0.4c5.5,1.1,9.4,6.1,9.3,11.7c0,5.7-3.9,10.5-9.4,11.5
	c-2.3,0.4-4.7,0.5-7.1,0.5c-31.1,0-62.3,0.1-93.4,0c-3.2,0-6.6-0.2-9.5-1.3c-5.2-1.9-7.9-7.8-6.6-13.4c1.5-6,5.5-9.3,11.6-9.3
	C107,396,123.9,396.1,140.8,396C140.8,396.1,140.8,396.1,140.8,396z"/>
<path d="M317.5,396.1c16.7,0,33.3-0.1,50,0.1c8.7,0.1,13.8,5.6,12.9,13.4c-0.7,5.6-3.8,9.1-9.3,10.2c-2.3,0.5-4.7,0.5-7.1,0.5
	c-31.1,0-62.3,0-93.4,0c-0.4,0-0.9,0-1.3,0c-9.6-0.2-15.2-4.7-15.1-12.3c0.1-7.5,5.7-11.9,15.4-11.9
	C285.5,396,301.5,396,317.5,396.1C317.5,396.1,317.5,396.1,317.5,396.1z"/>
<path d="M165.2,46.2c15.4,0,30.7-0.1,46.1,0c9.2,0.1,14.4,4.6,14.4,12.1c0,7.3-5,12-13.9,12.1c-31.1,0.2-62.3,0.2-93.4,0
	c-9.2,0-14.3-4.9-14.1-12.5c0.2-7.3,5.3-11.7,14.2-11.7C134,46.2,149.6,46.2,165.2,46.2z"/>
<path d="M79.6,58.6c-0.2,6.4-5.8,11.8-12.2,11.7c-6.5-0.1-12-5.5-12-11.9c0-6.7,5.8-12.3,12.6-12C74.3,46.6,79.7,52.2,79.6,58.6z"/>
</svg>
