<?xml version="1.0" encoding="utf-8"?>
<!-- Generator: Adobe Illustrator 24.0.1, SVG Export Plug-In . SVG Version: 6.00 Build 0)  -->
<svg version="1.1" id="Layer_1" xmlns="http://www.w3.org/2000/svg" xmlns:xlink="http://www.w3.org/1999/xlink" x="0px" y="0px"
	 viewBox="0 0 491.8 476" style="enable-background:new 0 0 491.8 476;" xml:space="preserve">
<g>
	<path d="M250.1,333.5c0.6-2.9,1-5.8,1.8-8.6c0.8-2.6,1.9-5.2,3.1-7.7c1-2.3,3-3,4.9-2.1c1.8,0.9,2.5,2.9,1.5,5
		c-2.4,4.8-3.8,9.9-4.1,15.2c-0.3,6.6,1.1,12.8,4.4,18.9c3.1-7.5,8.8-11.8,16.7-13.4c-0.5-0.8-0.9-1.5-1.3-2.2
		c-2.9-5.5-3.4-17.9,2.7-24.5c8.1-8.9,23.5-7.5,29.1,3.1c4,7.5,3.7,15.1-0.2,22.6c-0.1,0.3-0.3,0.5-0.5,0.9
		c7.8,1.6,13.5,5.8,16.7,13.5c2.3-4.1,3.6-8.2,4.1-12.6c2.2-20.1-10.3-36.8-30.2-40.2c-7.1-1.2-14-0.2-20.5,2.8
		c-0.8,0.3-1.5,0.7-2.2,1c-2,0.7-3.8,0.1-4.6-1.7c-0.8-1.8-0.2-3.8,1.7-4.6c3-1.4,6.1-2.8,9.4-3.6c17.7-4.5,35.2,1.9,46,16.7
		c0.3,0.5,0.7,0.9,1.1,1.5c0.5-0.2,1-0.4,1.4-0.7c9.8-5.2,19.5-10.5,29.3-15.6c1.2-0.6,1.5-1.2,1-2.5c-3-8.2-2.9-16.4,0-24.6
		c1-2.8,3.4-3.8,5.5-2.3c1.5,1,1.9,2.4,1.2,4.6c-1.3,3.8-2,7.6-1.8,11.6c0.3,4.5,1.4,8.8,3.9,13c2.4-5.7,6.5-9.1,12.3-10.6
		c-2.5-5.1-2.7-10.3-1.1-15.5c1.9-6.1,8.6-10.5,14.8-9.8c7.3,0.8,12.8,5.9,13.7,12.6c0.5,4.3,0.5,8.6-1.8,12.7
		c5.8,1.5,9.9,4.9,12.7,10.5c0.8-2.2,1.9-4.3,2.5-6.6c4.3-16.2-5.3-32.2-21.7-35.9c-4.9-1.1-9.7-0.9-14.5,0.6
		c-1,0.3-1.9,0.6-2.9,0.8c-2.1,0.4-3.8-0.5-4.3-2.4c-0.5-1.7,0.3-3.6,2.3-4.2c2.6-0.9,5.3-1.8,8-2.1c15.4-2,29,4.8,36.7,18.2
		c10.7,18.6,1.5,43.8-18.7,51.1c-15.8,5.7-32,0.9-42-12.5c-0.2-0.3-0.5-0.6-0.9-1.1c-10.7,5.7-21.5,11.5-32.3,17.2
		c4.7,11.4,4.7,22.8,0,34.3c10.8,5.7,21.5,11.5,32.3,17.3c2.8-4,6-7.4,10-10c10.2-6.5,21-7.8,32.4-3.8c2.4,0.8,3.3,2.6,2.7,4.6
		c-0.6,1.9-2.5,2.9-4.9,2.1c-4.6-1.5-9.2-2.2-14.1-1.6c-12.6,1.5-23.3,12-24.9,24.6c-0.8,6.5,0.3,12.5,3.6,18.5
		c2.4-5.7,6.5-9.2,12.4-10.6c-2.3-4.1-2.4-8.5-1.8-12.9c0.9-6.6,6.5-11.7,13.7-12.4c6.1-0.6,12.8,3.7,14.7,9.6
		c1.7,5.2,1.5,10.4-1,15.6c5.6,1.5,9.8,4.8,12.2,10.5c0.3-0.5,0.6-0.8,0.8-1.2c3.5-7,4.1-14.3,1.8-21.8c-0.3-0.8-0.6-1.7-0.7-2.5
		c-0.4-2,0.5-3.6,2.3-4.2c1.7-0.6,3.6,0.2,4.3,2.1c0.9,2.6,1.8,5.3,2.2,8c2.2,16.6-6,31.5-21.3,38.3c-3,1.3-6.3,1.8-9.5,2.7
		c-0.4,0.1-0.9,0.2-1.3,0.4c-2.4,0-4.7,0-7.1,0c-0.3-0.1-0.6-0.3-1-0.3c-23.1-3.2-37.1-25.9-29.4-48c0.5-1.3,0.2-1.8-1-2.4
		c-9.8-5.2-19.5-10.4-29.3-15.6c-0.5-0.2-0.9-0.5-1.5-0.7c-0.4,0.5-0.8,1-1.1,1.4c-7.1,9.8-16.7,15.7-28.6,17.7
		c-19.7,3.3-40.1-8.6-46.8-27.5c-1.3-3.7-1.9-7.7-2.8-11.6C250.1,338.2,250.1,335.9,250.1,333.5z M293.2,373.1
		c9.6-0.2,18-3.4,25-10.1c0.4-0.4,0.8-1.1,0.7-1.6c-0.2-5.1-2.3-9.3-6.9-11.5c-3.1-1.5-6.7-2.2-10-3.2c-0.4-0.1-1,0.1-1.5,0.3
		c-4.9,2.1-9.8,2-14.7,0c-0.6-0.2-1.4-0.3-2-0.2c-2.1,0.5-4.2,1-6.3,1.7c-5.9,1.8-9.7,6.4-10,12.5c0,0.7,0.3,1.7,0.8,2.1
		C275.2,369.7,283.6,372.9,293.2,373.1z M393.7,311.6c8,0,14.6-2.3,19.4-6.3c0.4-0.4,0.9-1,1-1.5c0.5-4.2-2.1-8.4-6.2-9.9
		c-1.6-0.6-3.3-1-4.9-1.4c-0.8-0.2-1.7-0.1-2.5,0.1c-3.2,1.1-6.4,1.5-9.5,0.3c-1.9-0.7-3.6-0.7-5.4-0.1c-0.6,0.2-1.1,0.3-1.7,0.5
		c-4.9,1.4-7.4,4.6-7.8,9.7c-0.1,1.1,0.3,1.7,1.1,2.3C382.4,309.5,388.5,311.5,393.7,311.6z M395.3,420.5c6.5-0.1,12.5-2.1,17.7-6.3
		c0.5-0.4,0.9-1,1-1.5c0.5-4.2-2.1-8.4-6.2-9.9c-1.6-0.6-3.3-1-4.9-1.4c-0.8-0.2-1.7-0.1-2.5,0.1c-3.2,1.1-6.4,1.5-9.5,0.3
		c-2-0.7-3.7-0.6-5.6,0c-0.5,0.2-1,0.3-1.5,0.4c-5,1.4-7.6,4.7-7.7,9.8c0,0.7,0.4,1.6,0.9,2C382.3,418.4,388.4,420.4,395.3,420.5z
		 M304.5,328.5c-0.1-1-0.1-2-0.2-3c-0.5-5.3-4.6-9.6-9.5-10c-5.8-0.6-10.7,2.5-12.1,8c-0.6,2.6-0.6,5.4-0.4,8
		c0.6,7.6,9.1,12.2,15.9,8.7C302.9,337.8,304.6,333.6,304.5,328.5z M402.9,277.4c0-0.8,0-1.7-0.1-2.5c-0.5-3.9-3.7-6.8-7.6-6.8
		c-3.7-0.1-7.1,2.6-7.7,6.4c-0.3,1.8-0.3,3.8,0,5.6c0.5,3,2.3,5.1,5.3,6c2.9,0.9,5.5,0.2,7.7-1.8C402.4,282.5,403,280.1,402.9,277.4
		z M387.3,386.1c0,0.6,0,1.2,0,1.8c0.2,4.3,3.5,7.5,7.6,7.5c4.2,0.1,7.6-3,7.9-7.4c0.1-1.3,0.1-2.6,0-3.9c-0.5-5.1-5.4-8.4-10.2-6.7
		C389.1,378.6,387.3,381.6,387.3,386.1z"/>
	<path d="M268.7,309.1c-0.1,1.8-1.7,3.5-3.6,3.4c-1.9,0-3.5-1.8-3.4-3.7c0.1-1.9,1.7-3.4,3.6-3.3
		C267.2,305.6,268.8,307.3,268.7,309.1z"/>
	<path d="M375.6,259.7c-0.1,1.9-1.8,3.5-3.6,3.4c-1.9-0.1-3.5-1.7-3.4-3.6c0-1.9,1.7-3.5,3.6-3.4C374,256.1,375.6,257.8,375.6,259.7
		z"/>
	<path d="M421.6,368.5c0,1.8-1.6,3.5-3.5,3.5c-1.9,0-3.6-1.7-3.6-3.6c0.1-1.8,1.7-3.4,3.6-3.4C420,365,421.6,366.6,421.6,368.5z"/>
</g>
<g>
	<path d="M199.5,361.2c-4.2-0.1-7.7,3.3-7.7,7.5c0,4,3.4,7.3,7.4,7.3c4.1,0,7.4-3.3,7.5-7.3C206.8,364.7,203.5,361.3,199.5,361.2z"
		/>
	<path d="M235.3,118.4c-2.7-0.6-5.5-0.8-8.1-1.5c-1.1-0.3-2.5-1.6-2.7-2.7c-0.8-3.9-1.3-7.9-1.7-11.8c-0.1-0.7,0.2-1.8,0.7-2.3
		c9.6-9.8,11.1-21.9,9.5-34.7c-2.4-19.4-22.3-32.9-41.2-27.7c-24.5,6.7-34.5,39.2-18,59.4c2.9,3.6,3.4,6.6,2.6,10.8
		c-1.7,9.1-1.5,9.2-10.7,10.8c-7.6,1.3-13.9,4.6-18.6,10.7c-3.3,4.3-3.4,7-0.2,11.5c12.8,18,30.5,27,52.2,27.6
		c22.5-0.6,40.1-9.9,52.9-28.1c2.7-3.9,2.7-6.5,0.1-10.3C248,123.9,242.4,120,235.3,118.4z M181.4,73.1c0-11.4,5.4-19.1,14.9-21.3
		c9.8-2.2,20,4.5,21.6,14.6c0.6,3.9,0.7,8,0.2,11.9c-1.2,10.2-9.7,17-19.8,16.4c-9.4-0.6-16.7-8.7-17-18.6
		C181.4,75.1,181.4,74.1,181.4,73.1z M191,112.2c-0.1-1,0.2-1.9,0.4-3c3,0.2,5.8,0.5,8.6,0.5c2.7,0,5.4-0.4,8.6-0.6
		c0.2,1.9,0.4,3.6,0.7,5.3c1,6.6,0.7,7-6,8.1c-0.5,0.1-1,0.3-1.5,0.2c-3.3-0.5-6.8-0.4-9.7-1.7C187.8,119.1,191.3,115.2,191,112.2z
		 M161.8,135.2c3.2-0.8,6.1-1.5,9-2.4c5.2-1.5,9.6-1,14.7,1.6c10.9,5.6,22.1,4.5,32.8-1.8c1.5-0.9,3.5-1.4,5.1-1.1
		c4.5,0.7,8.9,1.9,14,3C218.5,159.1,180.5,159.1,161.8,135.2z"/>
	<path d="M390.9,206.9c0-21.5,0-42.9,0-64.4c-0.1-0.2-0.3-0.4-0.4-0.6c-4.7-17.1-14.8-24.8-32.5-24.8c-19.8,0-39.7,0-59.5,0
		c-1.3,0-2.6,0-4,0C301.7,57.9,257.7,10.6,204.4,8C177,6.6,153,15.4,133.2,34.4c-23.4,22.5-32.5,50.3-29.1,82.7c-1.5,0-2.9,0-4.2,0
		c-20.2,0-40.4,0-60.6,0c-18.8,0-31.5,12.7-31.5,31.4c0,65.4,0,130.7,0,196.1c0,2,0,4,0.3,6c2.5,15.2,14.4,25.4,30,25.5
		c42.2,0.1,84.3,0,126.5,0c0.7,0,1.5,0,2.2-0.1c4-0.5,6.9-3.7,6.9-7.6c-0.1-3.7-3-6.8-6.8-7.3c-1.2-0.1-2.5-0.1-3.7-0.1
		c-41.2,0-82.3,0-123.5,0c-11.1,0-16.9-5.8-16.9-16.7c0-65.2,0-130.5,0-195.7c0-10.7,5.9-16.6,16.7-16.6c21.3,0,42.7,0.1,64-0.1
		c3.1,0,4.3,0.9,5.5,3.8c14.5,36.8,41.4,58.6,80.5,63.3c44.3,5.3,85.6-21.7,100.6-63.9c0.8-2.4,1.9-3.2,4.5-3.2
		c21.7,0.1,43.4,0.1,65.1,0.1c10.4,0,16.4,6,16.4,16.6c0,18.1,0,36.3,0,54.4c-8.4-1.6-17.1-2.5-26-2.5c-25.2,0-48.8,6.9-69,19
		c-27.3,0.1-54.7,0-82,0c-36.2,0-72.3,0-108.5,0c-9.9,0-15.8,5.9-15.9,15.8c-0.1,6.9-0.1,13.7,0,20.6c0.1,9.8,6.1,15.9,15.9,16
		c46.8,0,93.6,0,140.4,0c-3.3,6.2-6.2,12.7-8.5,19.4c-7.8,0-15.5,0-23.3,0c0,0,0,0,0,0c-10.3,0-20.7-0.1-31,0
		c-7.4,0.1-13.6,3.2-18.1,9c-5.9,7.6-7.1,16.1-3,25c4.1,8.9,11.3,13.9,21.2,14c15.6,0.2,31.2,0.1,46.9,0.1
		c2.1,72.7,61.7,131.1,134.9,131.1c74.6,0,135-60.4,135-135C484.9,275.3,445.5,224.3,390.9,206.9z M199.2,184.9
		c-44.4-0.2-81.1-37.3-80.8-81.6c0.3-45,36.8-80.7,82.1-80.5c44.2,0.3,80.2,37.1,79.9,81.5C280,148.4,243,185.1,199.2,184.9z
		 M215.4,324.6c-5.5,0-11,0-16.4,0c0,0,0,0,0,0c-10.1,0-20.2,0.1-30.3,0c-4.5-0.1-7.9-3-8.8-7.2c-0.9-3.9,1.2-8.3,4.9-10
		c1.4-0.6,3.1-1,4.7-1c16.2-0.1,32.5-0.1,48.7,0C216.8,312.3,215.9,318.4,215.4,324.6z M89.8,256.7c0-7.4,0-14.5,0-22
		c56.8,0,113.4,0,170.4,0c-7.4,6.6-14,13.9-19.8,22C190.2,256.7,140,256.7,89.8,256.7z M350.4,463.2c-70.2,0-127.1-56.9-127.1-127.1
		s56.9-127.1,127.1-127.1s127.1,56.9,127.1,127.1S420.5,463.2,350.4,463.2z"/>
</g>
</svg>
