<?xml version="1.0" encoding="utf-8"?>
<!-- Generator: Adobe Illustrator 24.0.1, SVG Export Plug-In . SVG Version: 6.00 Build 0)  -->
<svg version="1.1" id="Layer_1" xmlns="http://www.w3.org/2000/svg" xmlns:xlink="http://www.w3.org/1999/xlink" x="0px" y="0px"
	 viewBox="0 0 350 348" style="enable-background:new 0 0 350 348;" xml:space="preserve">
<path d="M200.4,61.1c1.7,0,3.1,0,4.6,0c37.9,0,75.8,0,113.8,0c15,0,23.8,8.7,23.8,23.6c0,59,0,118,0,177c0,15.2-8.7,23.9-23.9,24
	c-37.8,0-75.6,0-113.4,0c-1.5,0-3,0-5.1,0c0,1.3,0,2.5,0,3.7c0,8.2,0.1,16.5,0,24.7c-0.1,16.7-11.9,28.5-28.6,28.5
	c-46.3,0-92.5,0-138.8,0c-16.7,0-28.6-11.8-28.6-28.5c0-93.8,0-187.6,0-281.4C4.2,16,16.1,4.2,32.8,4.2c46.3,0,92.5,0,138.8,0
	c16.7,0,28.4,11.8,28.6,28.5c0.1,8.1,0,16.2,0,24.3C200.2,58.3,200.3,59.5,200.4,61.1z M172.5,61.1c0-6.4,0.1-12.3,0-18.1
	c-0.1-7.2-4-11-11.2-11.1c-8.7,0-17.5,0.1-26.2-0.1c-4.5-0.1-7.6,1.5-9.5,5.6c-1.8,4-5.1,5.9-9.6,5.8c-8.9-0.1-17.7-0.2-26.6,0
	c-5.3,0.1-8.9-1.9-11-6.6c-1.6-3.5-4.3-4.9-8.1-4.8c-8.5,0.1-17,0-25.4,0c-9.5,0-12.9,3.3-12.9,12.7c0,85.8,0,171.7,0,257.5
	c0,9.2,3.5,12.7,12.6,12.7c38.4,0,76.8,0,115.3,0c1.2,0,2.5,0,3.7-0.1c4.5-0.5,8.3-3.6,8.6-8c0.5-6.9,0.1-13.9,0.1-21.1
	c-4.2,0-8.2,0-12.2,0c-14.8,0-23.6-8.7-23.6-23.4c0-18.1-0.1-36.2,0.1-54.3c0-3.3-0.9-4.8-4-6c-20.4-8.1-40.6-16.4-60.9-24.7
	c-2.4-1-4.7-2.3-3.3-5.1c0.7-1.4,2.7-2.5,4.3-3.2c20.2-8.3,40.3-16.5,60.6-24.6c2.7-1.1,3.4-2.5,3.4-5.2c-0.1-18.6-0.1-37.2,0-55.8
	c0.1-13.3,9.1-22.2,22.4-22.3C163.2,61,167.6,61.1,172.5,61.1z M81.7,173.3c1.8,0.8,2.8,1.3,3.8,1.7c17.3,7,34.6,14.1,51.9,21.1
	c6.5,2.6,6.5,2.6,6.5,9.5c0,19,0,37.9,0,56.9c0,10.5,5.4,15.8,16,15.8c53,0,106,0,159,0c10.9,0,16.2-5.3,16.2-16.3
	c0-58.9,0-117.7,0-176.6c0-11.4-5.3-16.7-16.7-16.7c-52.6,0-105.3,0-157.9,0c-11.2,0-16.6,5.3-16.6,16.4c0,17.2,0.1,34.4,0,51.6
	c-0.1,13.8,1.8,10.7-10.8,15.9C116.3,159.5,99.4,166.2,81.7,173.3z M179.9,285.8c0,5.9,0,11.3,0,16.8c0,12.9-6.8,19.7-19.6,19.7
	c-38.7,0-77.3,0-116,0c-13,0-19.8-6.8-19.8-19.8c0-43.9,0-87.8,0-131.7c0-42.5,0-85.1,0-127.6c0-11.3,7.2-18.6,18.4-18.6
	c9.2,0,18.5,0,27.7,0c6.3,0,11.2,2.5,13.9,8.3c1.2,2.5,2.9,3.3,5.6,3.2c8-0.1,16-0.2,23.9,0c2.9,0.1,4.6-0.8,5.8-3.5
	c2.6-5.3,7.1-8,12.9-8.1c10-0.2,20-0.2,29.9,0c7.6,0.1,13.9,4.8,16,11.9c0.8,2.6,0.9,5.4,0.9,8.1c0.1,5.4,0,10.9,0,16.3
	c4.6,0,8.7,0,12.7,0c0.2-0.4,0.3-0.6,0.3-0.9c0-8.7,0.1-17.5,0.1-26.2c0-13.9-8.2-22.2-22-22.2c-45.7,0-91.3,0-137,0
	c-14.1,0-22.2,8.1-22.2,22.4c0,40.7,0,81.3,0,122c0,52.6,0,105.3,0,157.9c0,12.7,8.4,21.2,21.1,21.2c46.3,0,92.6,0,138.8,0
	c12.8,0,21.2-8.5,21.2-21.4c0-8.2,0-16.5,0-24.7c0-1.1-0.1-2.1-0.2-3.2C188.3,285.8,184.3,285.8,179.9,285.8z"/>
<path d="M239.3,252.3c-44.1-0.3-79-35.8-78.6-80.1c0.3-42.8,36.2-78,79.2-77.7c43.7,0.3,78.9,35.8,78.7,79.4
	C318.2,217.2,282.5,252.6,239.3,252.3z M168,173.1c-0.1,39.5,31.8,71.7,71.3,71.9c39.2,0.2,71.6-32,71.8-71.1
	c0.1-39.7-32-72.1-71.6-72.1C200.2,101.8,168.2,133.8,168,173.1z"/>
<path d="M102,27.4c-3.5,0-7,0-10.5,0c-2.4,0-4.2-1-4.2-3.6c0-2.7,1.8-3.7,4.2-3.7c7.1,0,14.2,0,21.3,0c2.4,0,4.2,1.1,4.3,3.7
	c0,2.6-1.8,3.6-4.3,3.6C109.2,27.4,105.6,27.4,102,27.4z"/>
<path d="M243.1,187.4c3.9-3.6,7.8-7.1,11.6-10.7c1.5-1.4,2.7-2.9,4.2-4.3c1.7-1.6,3.9-1.9,5.2,0.1c0.8,1.2,0.8,3.8,0,4.9
	c-2.6,3.3-5.7,6.2-8.6,9.3c-4.1,4.3-8.3,8.7-12.4,13c-2.6,2.7-4.3,2.8-6.9,0.1c-6.8-7-13.5-14-20.2-21c-0.4-0.4-1.2-0.9-1.2-1.4
	c-0.1-1.7-0.7-3.8,0.1-5c1.3-1.9,3.5-1.7,5.2,0c4,4.1,8,8.2,11.9,12.4c1,1.1,1.7,2.3,2.6,3.5c0.4-0.2,0.9-0.5,1.3-0.7
	c0-1.3,0-2.6,0-3.9c0-19.6,0-39.1,0-58.7c0-0.9,0-1.7,0-2.6c0-2.7,0.1-5.7,3.7-5.7c3.6,0,3.6,3,3.6,5.7c0,20.3,0,40.6,0,60.9
	C243.1,184.8,243.1,186.1,243.1,187.4z"/>
<path d="M239.6,221.4c-9.2,0-18.4,0-27.6,0c-2.6,0-5-0.3-5-3.6c0-3.2,2.3-3.8,4.9-3.8c18.4,0,36.9,0,55.3,0c2.5,0,5,0.5,5,3.7
	c0,3.2-2.3,3.7-4.9,3.7C258,221.3,248.8,221.4,239.6,221.4z"/>
</svg>
