<?xml version="1.0" encoding="utf-8"?>
<!-- Generator: Adobe Illustrator 24.0.1, SVG Export Plug-In . SVG Version: 6.00 Build 0)  -->
<svg version="1.1" id="Layer_1" xmlns="http://www.w3.org/2000/svg" xmlns:xlink="http://www.w3.org/1999/xlink" x="0px" y="0px"
	 viewBox="0 0 324 395" style="enable-background:new 0 0 324 395;" xml:space="preserve">
<path d="M168.9,5c7.8,1.7,15.7,2.8,23.3,5.2c55.5,18,83.9,80.7,61.1,134.4c-0.5,1.1-0.9,2.2-1.6,3.9c1.7,0.1,3,0.2,4.3,0.2
	c12,0,24,0,35.9,0c15.1,0,24.1,8.8,24.1,23.9c0,64.1,0,128.2,0,192.4c0,12.8-4.8,18.9-18.3,24c-91.3,0-182.6,0-274,0
	c-8.4-2.4-14.9-7-17.3-15.8c-0.7-2.6-0.9-5.4-1-8.1c-0.1-64.1-0.1-128.2,0-192.3c0-14.9,8.9-23.8,23.7-23.9c7.4,0,14.7,0,22.1,0
	c4.3,0,6.9,2.3,6.9,5.7c-0.1,3.3-2.6,5.5-6.7,5.5c-7.5,0.1-15,0-22.5,0c-8.1,0.1-12.2,4-12.2,12.3c0,64.4,0,128.7,0,193.1
	c0,8.3,4.2,12.4,12.5,12.4c87.7,0,175.4,0,263.1,0c8.4,0,12.5-4.1,12.5-12.3c0-64.4,0-128.7,0-193.1c0-8.2-4.1-12.3-12.2-12.3
	c-14.8-0.1-29.7-0.1-44.5,0.1c-1.5,0-3.5,1.1-4.4,2.4c-18,25.2-42.3,39.8-73,43.3c-53,6-103.3-34.1-109.7-87.1
	C54.3,63.5,91.7,14.3,146.5,6c2-0.3,3.9-0.6,5.9-1C157.9,5,163.4,5,168.9,5z M132.9,73.9c0,10.9-0.1,21.2,0,31.6
	c0.1,8.8,6,15.2,14.9,15.5c7,0.3,14,0.3,21,0c9-0.3,14.9-6.7,15-15.8c0-3.4-0.1-6.8,0-10.1c0.1-3.5,2.3-5.9,5.4-6
	c3.2-0.1,5.6,2.4,5.8,6c0.1,3,0,6,0,9c0.2,11.9-5,20.6-15.7,26c-0.9,0.4-1.9,1.4-2,2.2c-0.2,3.2-0.1,6.4-0.1,9.9
	c8.4,0,16.4-0.1,24.4,0c11.5,0.1,21.6,7.3,25.5,18.1c0.4,1,0.7,2,1.1,3.1c27.7-31,31.3-84.8-4.5-120.9
	C189.1,7.5,132.5,7.5,97.6,42.4c-35.8,36-31.4,88.6-7.8,117c6.3-13.5,17.3-18.1,31.4-17.3c5.9,0.4,11.9,0.1,18.2,0.1
	c0-2.9-0.2-5.4,0-7.8c0.2-2.5-0.7-3.7-2.9-4.8c-9.7-4.8-14.7-12.9-14.9-23.7c-0.2-12.2-0.1-24.5,0-36.7
	c0.1-17.6,12.6-30.3,30.2-30.4c12.7-0.1,25.4-0.1,38.2,0c10.6,0,18.4,7.6,18.4,17.6c0,9.7-8.2,17.5-18.6,17.6
	c-7.2,0.1-14.5,0-21.7,0C156.6,73.9,145,73.9,132.9,73.9z M139.9,153.5c-8.2,0-16.1,0-24.1,0c-8,0.1-14.6,5.5-16.4,13.3
	c-0.5,2.2-0.1,3.9,1.8,5.6c7.1,6.2,14.8,11.5,23.5,15.1c32.6,13.4,63.1,9.3,91.3-11.7c0.9-0.7,2-1.7,2.2-2.8
	c1.5-8.9-7.2-19.2-16.2-19.4c-7.5-0.1-15,0-22.4-0.1c-2,0-3,0.6-3.9,2.5c-2.8,6.4-7.8,10.3-14.8,11.2
	C151.5,168.4,144.5,163.8,139.9,153.5z M134.2,62.7c16.7,0,33.2,0,49.6,0c2.4,0,4.7,0.1,7.1-0.1c3.8-0.3,6.5-3.2,6.3-6.6
	c-0.1-3.4-2.9-6-6.8-6c-13.5-0.1-26.9-0.1-40.4,0.1C142.7,50.1,136.2,55.4,134.2,62.7z M150.8,132.5c0,5.8-0.2,11.2,0.1,16.5
	c0.2,4.1,3.4,6.9,7.4,7c3.8,0.1,7.4-2.5,7.6-6.3c0.3-5.7,0.1-11.4,0.1-17.2C160.8,132.5,156,132.5,150.8,132.5z"/>
<path d="M194.1,272.1c-24.6,0-49.1,0-73.7,0c-9.8,0-14.6-4.9-14.7-14.8c0-8.5,0-17,0-25.5c0.1-9.6,5.1-14.6,14.5-14.6
	c49.3,0,98.5,0,147.8,0c9.7,0,14.7,5,14.7,14.8c0,8.7,0,17.5,0,26.2c0,8.6-5.2,13.8-13.8,13.8C244,272.2,219,272.1,194.1,272.1z
	 M193.9,260.9c24.4,0,48.9,0,73.3,0.1c3.2,0,4.4-0.7,4.3-4.1c-0.2-8.1-0.2-16.2,0-24.3c0.1-3.2-1.1-4-4.1-4
	c-48.9,0.1-97.7,0.1-146.6,0c-3.3,0-4,1.3-4,4.2c0.1,7.9,0.2,15.7,0,23.6c-0.1,3.9,1.3,4.8,4.9,4.7
	C145.8,260.8,169.9,260.9,193.9,260.9z"/>
<path d="M194.2,287.6c24.6,0,49.1,0,73.7,0c10,0,14.8,4.9,14.8,15c0,8.7,0,17.5,0,26.2c-0.1,8.2-5.4,13.5-13.6,13.7
	c-2.7,0-5.5,0.1-8.2,0c-3.4-0.2-5.7-2.7-5.5-5.8c0.1-3,2.3-5.2,5.7-5.3c2.4-0.1,4.7-0.1,7.1,0c2.7,0.2,3.5-1,3.4-3.6
	c-0.1-8.2-0.2-16.5,0.1-24.7c0.1-3.9-1.6-4.2-4.7-4.2c-44.5,0.1-89,0-133.6,0c-4.4,0-8.7,0.1-13.1,0c-2.4-0.1-3.4,0.8-3.4,3.2
	c0.1,8.6,0.1,17.2,0,25.9c-0.1,3.4,2,3.4,4.4,3.4c36.3,0,72.6,0,108.9,0c1,0,2,0,3,0c3.9,0.1,6.2,2.1,6.3,5.4
	c0.1,3.5-2.3,5.8-6.3,5.8c-11.6,0.1-23.2,0-34.8,0c-25.8,0-51.6,0-77.4,0c-10.2,0-15.1-4.9-15.2-15.1c0-8.5-0.1-17,0-25.5
	c0.1-9.3,5.1-14.3,14.4-14.3C144.8,287.5,169.5,287.6,194.2,287.6z"/>
<path d="M63.9,227c3.5,0,7-0.1,10.5,0c8.9,0.3,16,7.3,16.6,16.2c0.5,8.6-5.6,16.8-14.4,17.6c-8.4,0.8-16.9,0.8-25.3,0
	c-9-0.9-14.8-8.8-14.2-18c0.5-8.6,7.6-15.5,16.5-15.8C56.9,226.9,60.4,227,63.9,227z M63.9,238.3c-3.1,0-6.2-0.1-9.4,0
	c-4,0.1-6.4,2.3-6.4,5.8c0,3.4,2.2,5.8,5.9,5.9c6.5,0.2,13,0.2,19.5,0c3.6-0.1,6.1-2.7,6.1-5.8c0-3.3-2.5-5.8-6.4-5.9
	C70.2,238.2,67.1,238.3,63.9,238.3z"/>
<path d="M63.7,335.7c-3.4,0-6.7,0.1-10.1,0c-8.8-0.2-16.1-7.1-16.6-15.6c-0.6-9.3,5.2-17.4,14.4-18.2c8.1-0.8,16.4-0.8,24.6-0.1
	c9.2,0.8,15.6,9.1,14.9,17.9c-0.7,9-7.9,15.8-17.1,16C70.4,335.8,67.1,335.7,63.7,335.7z M63.8,324.5c3.2,0,6.5,0.1,9.7,0
	c3.6-0.1,6.1-2.6,6.1-5.8c0-3-2.3-5.8-5.7-5.9c-6.7-0.2-13.5-0.2-20.2,0c-3.7,0.1-5.8,2.8-5.6,6.2c0.2,3.2,2.4,5.4,5.9,5.5
	C57.4,324.6,60.6,324.5,63.8,324.5z"/>
<path d="M158.3,364.5c-5,0-10,0.1-14.9,0c-3.9-0.1-6.3-2.1-6.4-5.4c-0.1-3.3,2.4-5.8,6.3-5.8c10.1-0.1,20.2-0.1,30.2,0
	c3.8,0,6.2,2.4,6.2,5.6c0,3.3-2.3,5.5-6.1,5.6C168.5,364.6,163.4,364.5,158.3,364.5z"/>
<path d="M247.8,320.7c-3.1,0.1-5.7-2.5-5.7-5.7c0-3.1,2.2-5.5,5.3-5.6c3.2-0.2,5.9,2.2,6,5.4C253.5,317.8,250.9,320.6,247.8,320.7z"
	/>
<path d="M143.8,320.7c-3.1-0.1-5.7-2.9-5.5-6c0.2-3.1,2.9-5.5,6-5.3c3.1,0.2,5.3,2.6,5.3,5.7C149.6,318.2,146.9,320.8,143.8,320.7z"
	/>
<path d="M220.7,309.4c3.2-0.1,5.7,2.3,5.8,5.4c0.1,3.1-2.4,5.8-5.5,5.9c-3.1,0.1-5.7-2.4-5.8-5.5C215.2,312,217.6,309.4,220.7,309.4
	z"/>
<path d="M175.2,315c0,3.1-2.7,5.7-5.8,5.7c-3.1-0.1-5.7-2.9-5.5-5.9c0.1-3,2.6-5.3,5.6-5.4C172.8,309.3,175.3,311.8,175.2,315z"/>
<path d="M195,320.7c-3.1-0.1-5.6-2.8-5.5-5.9c0.1-3.2,2.6-5.5,5.9-5.4c3,0.1,5.4,2.7,5.4,5.6C200.8,318.1,198.1,320.7,195,320.7z"/>
<path d="M309.3,122.7c6.9,7.7,7.7,10.2,5,13c-2.8,3-5,2.3-12.7-4.3c-4,2.3-7,10.1-12.8,4.1c-5.3-5.5,2-8.4,5.1-13.5
	c-1.4-1-3.4-2.1-4.8-3.5c-2.6-2.6-2.6-5.7-0.4-8c2.3-2.4,5.5-2.4,8.3,0.2c1.4,1.4,2.5,3.1,4.5,5.5c1.9-2.3,3.1-4.1,4.6-5.5
	c2.7-2.5,5.6-2.6,8-0.3c2.3,2.2,2.3,5.6-0.2,8.3C312.6,120.1,311,121.3,309.3,122.7z"/>
<path d="M220.9,249.8c-3.2,0-5.7-2.5-5.7-5.6c0-3.1,2.5-5.7,5.6-5.7c3.1,0,5.6,2.6,5.7,5.7C226.5,247.3,224.1,249.8,220.9,249.8z"/>
<path d="M175.2,244.1c0,3.2-2.5,5.7-5.8,5.6c-3,0-5.5-2.4-5.6-5.4c-0.1-3.1,2.5-5.8,5.6-5.9C172.6,238.4,175.2,241,175.2,244.1z"/>
<path d="M195.3,249.8c-3.3,0.1-5.7-2.3-5.8-5.6c0-3.2,2.5-5.8,5.6-5.8c2.9,0,5.5,2.5,5.7,5.4C201,246.9,198.5,249.7,195.3,249.8z"/>
<path d="M149.6,244.2c0,3.3-2.5,5.6-5.8,5.5c-3-0.1-5.5-2.6-5.5-5.5c-0.1-3.1,2.6-5.8,5.7-5.8C147.1,238.4,149.6,241,149.6,244.2z"
	/>
<path d="M247.7,249.8c-3.3,0-5.6-2.4-5.6-5.7c0-3,2.4-5.5,5.4-5.6c3-0.1,5.8,2.5,5.9,5.6C253.4,247.1,250.8,249.8,247.7,249.8z"/>
</svg>
