<?xml version="1.0" encoding="utf-8"?>
<!-- Generator: Adobe Illustrator 24.0.1, SVG Export Plug-In . SVG Version: 6.00 Build 0)  -->
<svg version="1.1" id="Layer_1" xmlns="http://www.w3.org/2000/svg" xmlns:xlink="http://www.w3.org/1999/xlink" x="0px" y="0px"
	 viewBox="0 0 392 392" style="enable-background:new 0 0 392 392;" xml:space="preserve">
<path d="M299.9,387c-40.4,0-80.8,0-121.3,0c-6.7-2.8-10.3-7.4-9.8-15c0.9-12.1,11.3-22.6,23.5-23.2c2.7-0.1,5.4,0,8.1,0
	c0-6.8,0-12.9,0-19.4c-1.6,0-3,0-4.4,0c-23.2,0-46.4,0-69.6,0c-2.6,0-5.3,0-7.8-0.5c-16.2-3-26.5-15.8-26.5-33.1
	c-0.1-21.3,0-42.7,0-64c0-1.4,0-2.9,0-4.5c-2.1,0-3.6,0-5.1,0c-16.8,0-33.7,0-50.5,0c-20.2-0.1-33.8-13.7-33.8-33.8
	c0-52,0-104.1,0-156.1c0-20.2,13.6-33.7,33.8-33.7c75.3,0,150.7,0,226,0c2.1,0,4.3,0,6.3,0.3c16.9,2.7,27.5,15.5,27.6,33.3
	c0.1,21.3,0,42.7,0,64c0,1.4,0.1,2.9,0.2,4.6c2,0,3.6,0,5.2,0c18.1,0.1,36.2-0.1,54.3,0.2c9.7,0.2,17.7,4.7,23.1,12.6
	c2.9,4.3,4.4,9.6,6.6,14.4c0,54.4,0,108.8,0,163.2c-0.2,0.2-0.4,0.4-0.5,0.6c-5.4,22.1-18.8,32.5-41.5,32.5c-20.8,0-41.7,0-62.5,0
	c-1.3,0-2.6,0-3.8,0c0,6.8,0,12.9,0,19.3c2.4,0,4.5-0.1,6.6,0c10.4,0.4,18,5.4,22.5,14.7C311.9,374,309.7,381.2,299.9,387z
	 M373.2,265.5c0-1.5,0-2.7,0-3.9c0-40.6,0-81.1,0-121.7c0-13.5-7.7-21.2-21-21.2c-17.2,0-34.4,0-51.6,0c-1.2,0-2.4,0.1-4,0.2
	c0,1.8,0,3.2,0,4.7c0,20.8,0,41.7,0,62.5c0,3.5-0.1,7-0.9,10.4c-3.9,18.7-19.3,30.7-39.2,30.7c-32.9,0.1-65.9,0-98.8,0
	c-1.4,0-2.8,0-4.3,0c4.1,5.3,8.5,9.6,12.9,14c2.3,2.3,3.3,5,1.7,8.1c-2.1,4-6.9,4.6-10.4,1.1c-8.5-8.3-16.9-16.6-25.3-25
	c-2.7-2.7-2.7-6.6,0.1-9.4c8.3-8.3,16.6-16.6,25-24.8c3-2.9,6.8-3.1,9.3-0.7c2.8,2.7,2.8,6.4-0.3,9.6c-3.3,3.4-6.7,6.7-10,10.1
	c-1.1,1.1-2.2,2.3-3.7,3.9c1.3,0.1,1.7,0.2,2,0.2c34.2,0,68.4,0,102.5,0c2.5,0,5-0.3,7.4-0.9c12-3.1,19.2-13,19.2-26.5
	c0-25-0.2-49.9-0.2-74.9c0-25,0.2-49.9,0.2-74.9c0-13.2-7.8-21-20.9-21c-75.5,0-150.9,0-226.4,0c-13,0-20.9,7.9-20.9,21
	c0,40.6,0,81.1,0,121.7c0,1.3,0,2.6,0,4c25.8,0,51,0,76.7,0c0-7.7-0.2-15.2,0.1-22.6c0.1-4.2,0.5-8.5,1.7-12.5
	c4.3-13.8,16.4-22,32.1-22c35.1,0,70.1,0,105.2,0c1.4,0,2.8,0,4.2,0c0.2-0.4,0.3-0.8,0.5-1.2c-4.4-4.2-8.8-8.4-13.2-12.7
	c-3.4-3.4-3.6-7.1-0.7-9.9c2.7-2.6,6.5-2.3,9.6,0.8c8.2,8.1,16.3,16.2,24.4,24.3c3.2,3.2,3,7-0.2,10.2c-2.6,2.5-5.2,5.1-7.7,7.6
	c-5.7,5.6-11.1,11.5-17.1,16.8c-1.5,1.4-4.6,2.1-6.7,1.6c-1.7-0.4-3.8-2.8-4.1-4.6c-0.3-2,0.8-4.7,2.3-6.2
	c4.2-4.5,8.8-8.6,13.3-12.9c-1.8-1-3-1.1-4.1-1.1c-35.2,0-70.4,0-105.5,0c-13.7,0-21.2,7.6-21.2,21.4c0,10.1,0.2,20.2,0.2,30.3
	c0,30.8-0.1,61.6-0.2,92.4c0,0.8,0.2,1.7,0.3,2.6C194.5,265.5,283.6,265.5,373.2,265.5z M105,278.6c0,6.6-0.2,12.8,0,19.1
	c0.4,11.3,8.4,19,19.8,19c74.1,0,148.2,0,222.3,0c2.9,0,6.1-0.4,8.8-1.4c16.6-6.2,19.1-20.4,16.8-36.7
	C283.6,278.6,194.5,278.6,105,278.6z M91.9,176.4c-25.6,0-50.9,0-76.4,0c0,5.7,0,11,0,16.4c0,14.1,7.7,21.7,21.7,21.8
	c16.8,0,33.6,0,50.5,0c1.3,0,2.7,0,4.3,0C91.9,201.6,91.9,189.1,91.9,176.4z M181.8,374.1c38.1,0,76.2,0,114.3,0
	c0.4-7.1-5-12.5-12.7-12.6c-20.1,0-40.1,0-60.2,0c-9.7,0-19.4-0.1-29.2,0C187,361.6,181.9,366.9,181.8,374.1z M213.8,348.3
	c17.2,0,33.9,0,50.5,0c0-6.4,0-12.4,0-18.5c-17,0-33.6,0-50.5,0C213.8,336,213.8,342.1,213.8,348.3z"/>
<path d="M111.2,41.9c-12.2,0-24.4,0-36.6,0c-5,0-8-2.4-8-6.4c0-3.9,3-6.4,8-6.4c24.5,0,49.1,0,73.6,0c5.9,0,9.4,4.5,7.1,9.1
	c-1.4,2.8-3.8,3.7-6.8,3.7C136.1,41.9,123.7,41.9,111.2,41.9z"/>
<path d="M41,41.9c-2.2,0-4.5,0.1-6.7,0c-3.4-0.2-5.9-2.8-6-6c-0.1-3.1,2.2-6.3,5.5-6.5c4.8-0.3,9.7-0.3,14.6,0
	c3.4,0.2,5.5,3.2,5.4,6.5c-0.1,3.3-2.4,5.8-5.9,6C45.5,42,43.3,41.9,41,41.9z"/>
<path d="M239.1,303.9c-2.1,0-4.2,0.1-6.4,0c-3.9-0.2-6.4-2.8-6.3-6.4c0-3.5,2.4-6.1,6.1-6.2c4.4-0.2,8.7-0.2,13.1,0
	c3.6,0.1,6.2,2.9,6.3,6.2c0.1,3.4-2.7,6.2-6.4,6.4C243.3,304,241.2,303.9,239.1,303.9z"/>
</svg>
